<svg width="246" height="246" viewBox="0 0 246 246" fill="none" xmlns="http://www.w3.org/2000/svg">
<path opacity="0.05" d="M71.7321 50.7765C83.9818 41.9194 99.7082 40.7892 114.72 38.7126C129.313 36.6939 145.004 32.1494 158.206 38.8144C171.241 45.3944 174.903 61.8755 183.703 73.5361C191.977 84.4994 203.444 92.7885 208.55 105.524C214.302 119.868 220.476 136.407 214.61 150.62C208.745 164.834 192.538 171.624 178.596 178.105C166.845 183.568 153.352 181.164 140.924 184.876C126.31 189.242 114.532 202.881 99.2795 201.797C83.2772 200.661 68.1087 191.243 57.708 178.965C47.2912 166.669 44.0979 150.116 42.0019 134.182C39.9728 118.758 40.6057 103.143 45.8123 88.536C51.0326 73.8909 59.1462 59.8767 71.7321 50.7765Z" fill="#1770F9"/>
<path opacity="0.05" d="M44.0473 84.1637C50.5238 70.5051 63.766 61.947 75.9265 52.9031C87.7475 44.1117 99.3155 32.5778 114.096 32.0675C128.689 31.5636 139.83 44.249 153.155 50.2365C165.683 55.8659 179.724 57.6145 190.328 66.3213C202.273 76.1287 215.643 87.6562 217.34 102.938C219.038 118.22 208.098 131.971 198.995 144.361C191.322 154.805 178.337 159.19 169.229 168.424C158.519 179.283 154.757 196.907 140.865 203.296C126.29 210 108.461 209.043 93.4359 203.285C78.3874 197.518 67.6234 184.544 58.1188 171.585C48.9181 159.04 41.959 145.046 39.4948 129.737C37.024 114.387 37.3931 98.1973 44.0473 84.1637Z" fill="#1770F9"/>
<path d="M161.124 111.288L175 100.534V156.53C175 162.057 170.688 166.534 165.363 166.534H88.6367C83.3124 166.534 79 162.057 79 156.53V103.534L92.5629 111.037L121.231 133.246C124.651 135.897 129.349 135.897 132.746 133.246L161.124 111.288Z" fill="white"/>
<path d="M173.061 100.668L158.559 111.476V89.0565L173.061 100.668Z" fill="white"/>
<path d="M129.378 64.2999L137.948 71.4124H107.964L116.535 64.2999C120.28 61.2334 125.659 61.2334 129.378 64.2999Z" fill="white"/>
<path d="M93 91.5339V115.534L89.4909 112.403L79 103.534L89.4909 94.6644L93 91.5339Z" fill="white"/>
<g style="mix-blend-mode:luminosity">
<path d="M109.056 71.5591H160V111.517L130.213 133.54C126.619 136.199 121.684 136.199 118.116 133.54L88 111.266L88.0761 111.165V71.5339H109.056V71.5591Z" fill="#EAF0F5"/>
</g>
<path d="M107.386 99.16H120.958C122.34 99.16 123.472 98.0287 123.472 96.6465C123.472 95.2643 122.34 94.133 120.958 94.133H107.386C106.004 94.133 104.873 95.2643 104.873 96.6465C104.873 98.0287 106.004 99.16 107.386 99.16Z" fill="#1770F9"/>
<path d="M107.386 111.727H138.552C139.934 111.727 141.065 110.596 141.065 109.213C141.065 107.831 139.934 106.7 138.552 106.7H107.386C106.004 106.7 104.873 107.831 104.873 109.213C104.873 110.596 106.004 111.727 107.386 111.727Z" fill="#1770F9"/>
<path d="M174.64 101.634H174.609V102.134V158.408C174.609 165.05 169.273 170.5 162.618 170.5H82.568C75.9368 170.5 70.576 165.073 70.576 158.408V102.134V101.634H70.5487C70.6416 101.231 70.8638 100.854 71.1791 100.58L84.4453 89.5498L84.6257 89.3998V89.1653V72.9035C84.6257 71.8196 85.5839 70.9655 86.7399 70.9655H106.696H106.877L107.016 70.8495L114.882 64.2904L174.64 101.634ZM174.64 101.634C174.548 101.216 174.32 100.835 173.989 100.561C173.988 100.56 173.987 100.56 173.986 100.559L160.495 89.7051L160.308 89.555V89.3155V72.9035C160.308 71.8385 159.368 70.9655 158.195 70.9655H138.49H138.308L138.169 70.8494L130.279 64.2662C130.278 64.266 130.278 64.2659 130.278 64.2657C125.814 60.574 119.347 60.5741 114.882 64.2901L174.64 101.634ZM168.974 102.46L169.493 102.073L168.988 101.668L161.121 95.3599L160.308 94.7081V95.7499V107.915V108.91L161.107 108.316L168.974 102.46ZM117.486 67.3665L117.484 67.368L114.241 70.0821L113.186 70.9655H114.562H130.623H131.992L130.945 70.0831L127.753 67.3942L127.75 67.3916C124.778 64.9282 120.463 64.899 117.486 67.3665ZM156.282 75.4925V74.9925H155.782H89.1778H88.6778V75.4925V111.459V111.71L88.8793 111.86L117.782 133.374L117.784 133.375C120.651 135.491 124.56 135.49 127.45 133.376L127.453 133.374L156.081 112.06L156.282 111.91V111.659V75.4925ZM84.6508 95.6744V94.6105L83.8317 95.2895L76.1913 101.623L75.7022 102.029L76.2113 102.409L83.8517 108.114L84.6508 108.711V107.713V95.6744ZM162.643 166.474L162.646 166.474C167.071 166.446 170.634 162.827 170.608 158.381C170.608 158.381 170.608 158.38 170.608 158.38L170.608 107.136V106.139L169.809 106.735L129.773 136.617C129.772 136.618 129.772 136.618 129.772 136.618C125.5 139.779 119.66 139.779 115.389 136.618C115.388 136.618 115.388 136.618 115.387 136.617L85.5063 114.3L85.5058 114.3L75.4027 106.736L74.6031 106.137V107.136V158.406C74.577 162.828 78.141 166.447 82.565 166.474H82.568L162.643 166.474Z" fill="#2D2E48" stroke="#E8F1FF"/>
</svg>
