<svg width="59" height="59" viewBox="0 0 59 59" fill="none" xmlns="http://www.w3.org/2000/svg">
<circle opacity="0.1" cx="29.3616" cy="29.3616" r="29.3616" fill="#1770F9"/>
<path d="M29.5002 43C25.3002 40.1024 23.2002 34.322 23.2002 29.5074C23.2002 24.6929 25.3002 18.8976 29.5002 16" stroke="#1770F9" stroke-width="2" stroke-linecap="round" stroke-linejoin="round"/>
<path d="M29.5 43C33.6946 40.1024 35.8 34.322 35.8 29.5074C35.8 24.6929 33.6946 18.8976 29.5 16" stroke="#1770F9" stroke-width="2" stroke-linecap="round" stroke-linejoin="round"/>
<path d="M17.7998 23.2H41.1998" stroke="#1770F9" stroke-width="2" stroke-linecap="round" stroke-linejoin="round"/>
<path d="M17.7998 35.8H41.1998" stroke="#1770F9" stroke-width="2" stroke-linecap="round" stroke-linejoin="round"/>
<path d="M16 29.5H43" stroke="#1770F9" stroke-width="2" stroke-linecap="round" stroke-linejoin="round"/>
<path d="M29.4852 43C32.1565 43.0029 34.7686 42.2133 36.9909 40.731C39.2133 39.2487 40.9459 37.1405 41.9695 34.6731C42.9931 32.2057 43.2618 29.4901 42.7413 26.8699C42.2209 24.2498 40.9349 21.843 39.046 19.9541C37.1571 18.0652 34.7502 16.7791 32.1301 16.2587C29.51 15.7383 26.7943 16.0069 24.3269 17.0305C21.8595 18.0541 19.7512 19.7867 18.269 22.0091C16.7867 24.2314 15.9971 26.8435 16 29.5148C16.0039 33.0901 17.426 36.5178 19.9541 39.0459C22.4822 41.574 25.9099 42.9961 29.4852 43V43Z" stroke="#1770F9" stroke-width="2" stroke-linecap="round" stroke-linejoin="round"/>
</svg>
