<svg width="59" height="59" viewBox="0 0 59 59" fill="none" xmlns="http://www.w3.org/2000/svg">
<circle opacity="0.1" cx="29.3616" cy="29.3616" r="29.3616" fill="#1770F9"/>
<path d="M33.0255 23.49H38.3024C39.5483 23.49 40.7431 24.0368 41.6241 25.0101C42.5051 25.9834 43 27.3035 43 28.68V29.97C43 31.3465 42.5051 32.6665 41.6241 33.6399C40.7431 34.6132 39.5483 35.16 38.3024 35.16H33.0255" stroke="#1770F9" stroke-width="2" stroke-linecap="round" stroke-linejoin="round"/>
<path d="M25.9745 23.49H20.6976C19.4517 23.49 18.2569 24.0368 17.3759 25.0101C16.4949 25.9834 16 27.3035 16 28.68V29.97C16 31.3465 16.4949 32.6665 17.3759 33.6399C18.2569 34.6132 19.4517 35.16 20.6976 35.16H25.9745" stroke="#1770F9" stroke-width="2" stroke-linecap="round" stroke-linejoin="round"/>
<path d="M29.5046 20.89V17" stroke="#1770F9" stroke-width="2" stroke-linecap="round" stroke-linejoin="round"/>
<path d="M33.0255 20.24L34.7814 18.3" stroke="#1770F9" stroke-width="2" stroke-linecap="round" stroke-linejoin="round"/>
<path d="M25.9745 20.24L24.2186 18.3" stroke="#1770F9" stroke-width="2" stroke-linecap="round" stroke-linejoin="round"/>
<path d="M29.5046 37.76V41.65" stroke="#1770F9" stroke-width="2" stroke-linecap="round" stroke-linejoin="round"/>
<path d="M33.0255 38.43L34.7814 40.37" stroke="#1770F9" stroke-width="2" stroke-linecap="round" stroke-linejoin="round"/>
<path d="M25.9745 38.43L24.2186 40.35" stroke="#1770F9" stroke-width="2" stroke-linecap="round" stroke-linejoin="round"/>
</svg>
