<svg width="172" height="172" viewBox="0 0 172 172" fill="none" xmlns="http://www.w3.org/2000/svg">
<path opacity="0.2" d="M172 86C172 133.496 133.496 172 86 172C38.5035 172 0 133.496 0 86C0 38.5035 38.5035 0 86 0C133.496 0 172 38.5035 172 86ZM17.2 86C17.2 123.997 48.0028 154.8 86 154.8C123.997 154.8 154.8 123.997 154.8 86C154.8 48.0028 123.997 17.2 86 17.2C48.0028 17.2 17.2 48.0028 17.2 86Z" fill="#608AFA"/>
<path opacity="0.5" d="M172 86C172 108.809 162.939 130.683 146.811 146.811C130.683 162.939 108.809 172 86 172C63.1914 172 41.317 162.939 25.1888 146.811C9.06069 130.683 3.44401e-06 108.809 0 86L17.2 86C17.2 104.247 24.4486 121.746 37.3511 134.649C50.2536 147.551 67.7531 154.8 86 154.8C104.247 154.8 121.746 147.551 134.649 134.649C147.551 121.746 154.8 104.247 154.8 86H172Z" fill="#608AFA"/>
</svg>
