<svg width="172" height="172" viewBox="0 0 172 172" fill="none" xmlns="http://www.w3.org/2000/svg">
<path opacity="0.2" d="M172 86C172 133.496 133.496 172 86 172C38.5035 172 0 133.496 0 86C0 38.5035 38.5035 0 86 0C133.496 0 172 38.5035 172 86ZM17.2 86C17.2 123.997 48.0028 154.8 86 154.8C123.997 154.8 154.8 123.997 154.8 86C154.8 48.0028 123.997 17.2 86 17.2C48.0028 17.2 17.2 48.0028 17.2 86Z" fill="#FC9E2A"/>
<path opacity="0.5" d="M172 86C172 101.396 167.867 116.509 160.033 129.763C152.198 143.016 140.949 153.924 127.461 161.346C113.972 168.768 98.7385 172.434 83.35 171.959C67.9614 171.485 52.9824 166.888 39.9767 158.649C26.971 150.41 16.4155 138.83 9.41231 125.119C2.4091 111.409 -0.785056 96.0691 0.163317 80.7025C1.11169 65.3358 6.16782 50.5056 14.8038 37.7599C23.4398 25.0143 35.3391 14.8206 49.2592 8.24324L56.6074 23.7946C45.4712 29.0565 35.9519 37.2114 29.0431 47.4079C22.1342 57.6045 18.0893 69.4687 17.3307 81.762C16.572 94.0553 19.1273 106.327 24.7298 117.296C30.3324 128.264 38.7768 137.528 49.1813 144.119C59.5859 150.71 71.5691 154.388 83.88 154.767C96.1908 155.147 108.378 152.215 119.169 146.277C129.959 140.339 138.958 131.613 145.226 121.01C151.494 110.408 154.8 98.3167 154.8 86H172Z" fill="#FC9E2A"/>
</svg>
