<svg width="173" height="172" viewBox="0 0 173 172" fill="none" xmlns="http://www.w3.org/2000/svg">
<path opacity="0.2" d="M173 86C173 133.496 134.496 172 87 172C39.5035 172 1 133.496 1 86C1 38.5035 39.5035 0 87 0C134.496 0 173 38.5035 173 86ZM18.2 86C18.2 123.997 49.0028 154.8 87 154.8C124.997 154.8 155.8 123.997 155.8 86C155.8 48.0028 124.997 17.2 87 17.2C49.0028 17.2 18.2 48.0028 18.2 86Z" fill="#2DBCB4"/>
<path opacity="0.5" d="M172 86C172 103.009 166.956 119.636 157.506 133.779C148.057 147.922 134.625 158.945 118.911 165.454C103.196 171.963 85.9046 173.666 69.2222 170.348C52.5399 167.029 37.2161 158.839 25.1888 146.811C13.1615 134.784 4.97079 119.46 1.65247 102.778C-1.66586 86.0954 0.0372239 68.8037 6.54636 53.0892C13.0555 37.3748 24.0783 23.9434 38.221 14.4936C52.3636 5.04381 68.9908 -2.02833e-07 86 0V17.2C72.3926 17.2 59.0909 21.235 47.7768 28.7949C36.4627 36.3547 27.6444 47.0998 22.4371 59.6714C17.2298 72.2429 15.8673 86.0763 18.522 99.4222C21.1766 112.768 27.7292 125.027 37.3511 134.649C46.9729 144.271 59.2319 150.823 72.5778 153.478C85.9237 156.133 99.7571 154.77 112.329 149.563C124.9 144.356 135.645 135.537 143.205 124.223C150.765 112.909 154.8 99.6074 154.8 86H172Z" fill="#2DBCB4"/>
</svg>
