<svg width="172" height="172" viewBox="0 0 172 172" fill="none" xmlns="http://www.w3.org/2000/svg">
<path opacity="0.2" d="M172 86C172 133.496 133.496 172 86 172C38.5035 172 0 133.496 0 86C0 38.5035 38.5035 0 86 0C133.496 0 172 38.5035 172 86ZM17.2 86C17.2 123.997 48.0028 154.8 86 154.8C123.997 154.8 154.8 123.997 154.8 86C154.8 48.0028 123.997 17.2 86 17.2C48.0028 17.2 17.2 48.0028 17.2 86Z" fill="#F04959"/>
<path opacity="0.5" d="M172 86C172 103.929 166.396 121.41 155.973 135.998C145.549 150.586 130.827 161.552 113.865 167.361C96.9024 173.17 78.5488 173.533 61.3705 168.398C44.1922 163.263 29.0482 152.888 18.0565 138.723C7.06489 124.558 0.775193 107.312 0.0670959 89.3965C-0.641001 71.4811 4.26791 53.7925 14.1073 38.8042C23.9467 23.816 38.2245 12.2778 54.944 5.80322C71.6634 -0.671352 89.9884 -1.75849 107.356 2.69384L103.085 19.3551C89.1907 15.7932 74.5307 16.6629 61.1552 21.8426C47.7796 27.0222 36.3574 36.2528 28.4858 48.2434C20.6143 60.234 16.6872 74.3849 17.2537 88.7172C17.8202 103.049 22.8519 116.846 31.6452 128.178C40.4386 139.51 52.5537 147.81 66.2964 151.918C80.039 156.026 94.7219 155.736 108.292 151.089C121.861 146.441 133.639 137.669 141.978 125.999C150.317 114.328 154.8 100.343 154.8 86H172Z" fill="#F04959"/>
</svg>
