<svg width="172" height="172" viewBox="0 0 172 172" fill="none" xmlns="http://www.w3.org/2000/svg">
<path opacity="0.2" d="M172 86C172 133.496 133.496 172 86 172C38.5035 172 0 133.496 0 86C0 38.5035 38.5035 0 86 0C133.496 0 172 38.5035 172 86ZM17.2 86C17.2 123.997 48.0028 154.8 86 154.8C123.997 154.8 154.8 123.997 154.8 86C154.8 48.0028 123.997 17.2 86 17.2C48.0028 17.2 17.2 48.0028 17.2 86Z" fill="#7C4DF6"/>
<path opacity="0.5" d="M172 86C172 97.2937 169.776 108.477 165.454 118.911C161.132 129.345 154.797 138.825 146.811 146.811C138.825 154.797 129.345 161.132 118.911 165.454C108.477 169.776 97.2937 172 86 172V154.8C95.0349 154.8 103.981 153.02 112.329 149.563C120.676 146.105 128.26 141.038 134.649 134.649C141.038 128.26 146.105 120.676 149.563 112.329C153.02 103.981 154.8 95.0349 154.8 86H172Z" fill="#7C4DF6"/>
</svg>
