<svg width="65" height="65" viewBox="0 0 65 65" fill="none" xmlns="http://www.w3.org/2000/svg">
<circle opacity="0.15" cx="32.5" cy="32.5" r="32.5" fill="#F04959"/>
<path d="M30.5407 45.9987H21.1672C20.8568 45.9964 20.5599 45.8714 20.3413 45.6511C20.1227 45.4307 20 45.1329 20 44.8225V20.1762C20 19.8658 20.1227 19.568 20.3413 19.3477C20.5599 19.1274 20.8568 19.0024 21.1672 19H36.7747C37.0837 19.002 37.3794 19.1255 37.598 19.3438L41.95 23.6958C42.0602 23.8026 42.1475 23.9306 42.2066 24.0722C42.2657 24.2137 42.2954 24.3658 42.2939 24.5192V28.3917" stroke="#F04959" stroke-width="2" stroke-linecap="round" stroke-linejoin="round"/>
<path d="M24.6865 34.7432L28.1609 31.2779C28.3254 31.1114 28.543 31.0077 28.7759 30.9845C29.0088 30.9614 29.2426 31.0204 29.4366 31.1512L31.0743 32.237C31.2728 32.3729 31.5135 32.4331 31.7526 32.4065C31.9917 32.3799 32.2134 32.2684 32.3772 32.0922L35.5892 28.6631" stroke="#F04959" stroke-width="2" stroke-linecap="round" stroke-linejoin="round"/>
<path d="M24.6865 26.0483V37.8105H29.3824" stroke="#F04959" stroke-width="2" stroke-linecap="round" stroke-linejoin="round"/>
<path d="M40.7837 32.418L42.5933 36.6162H46.1129C46.29 36.6073 46.4654 36.654 46.6147 36.7497C46.7639 36.8454 46.8795 36.9853 46.9453 37.15C47.0062 37.3158 47.0173 37.4959 46.9771 37.6679C46.9369 37.8399 46.8472 37.9965 46.7191 38.1181L43.67 40.8325L45.3619 44.723C45.4549 44.9026 45.485 45.1082 45.4475 45.3069C45.4099 45.5056 45.3069 45.686 45.1549 45.8193C45.0028 45.9526 44.8105 46.0311 44.6086 46.0423C44.4067 46.0536 44.2068 45.9968 44.0409 45.8811L39.9604 43.574L35.8708 45.8811C35.7047 45.9924 35.5065 46.0455 35.3071 46.0322C35.1076 46.019 34.9182 45.94 34.7684 45.8078C34.6185 45.6755 34.5167 45.4973 34.4788 45.3011C34.4409 45.1049 34.469 44.9016 34.5588 44.723L36.2507 40.8325L33.2016 38.1181C33.0735 37.9965 32.9838 37.8399 32.9437 37.6679C32.9035 37.4959 32.9145 37.3158 32.9754 37.15C33.0412 36.9853 33.1568 36.8454 33.3061 36.7497C33.4553 36.654 33.6307 36.6073 33.8078 36.6162H37.3184L39.128 32.418C39.1975 32.2547 39.3135 32.1156 39.4615 32.0178C39.6095 31.9199 39.783 31.8678 39.9604 31.8678C40.1378 31.8678 40.3113 31.9199 40.4593 32.0178C40.6073 32.1156 40.7232 32.2547 40.7928 32.418H40.7837Z" stroke="#F04959" stroke-width="2" stroke-linecap="round" stroke-linejoin="round"/>
</svg>
