<svg width="65" height="65" viewBox="0 0 65 65" fill="none" xmlns="http://www.w3.org/2000/svg">
<circle opacity="0.1" cx="32.5" cy="32.5" r="32.5" fill="#2DBCB4"/>
<path d="M33.7513 46.0362H23.1779C22.8655 46.0362 22.5659 45.9121 22.345 45.6913C22.1241 45.4704 22 45.1708 22 44.8584V20.1779C22 19.8655 22.1241 19.5659 22.345 19.345C22.5659 19.1241 22.8655 19 23.1779 19H38.798C38.9527 18.9998 39.106 19.0301 39.249 19.0892C39.3921 19.1483 39.522 19.235 39.6315 19.3443L43.9896 23.7023C44.0989 23.8119 44.1856 23.9418 44.2447 24.0849C44.3038 24.2279 44.3341 24.3812 44.3339 24.5359V29.5826" stroke="#2DBCB4" stroke-width="2" stroke-linecap="round" stroke-linejoin="round"/>
<path d="M25.5244 36.6315H32.5643" stroke="#2DBCB4" stroke-width="2" stroke-linecap="round" stroke-linejoin="round"/>
<path d="M27.2911 30.7785H28.4689C28.6236 30.7809 28.771 30.844 28.8795 30.9542C28.988 31.0644 29.0488 31.2128 29.0488 31.3675V36.6587H26.7021V31.3403C26.7091 31.1888 26.7743 31.0459 26.884 30.9413C26.9937 30.8367 27.1395 30.7784 27.2911 30.7785V30.7785Z" stroke="#2DBCB4" stroke-width="2" stroke-linecap="round" stroke-linejoin="round"/>
<path d="M33.7519 33.1071V27.8158C33.7519 27.6612 33.6911 27.5127 33.5826 27.4025C33.4741 27.2923 33.3267 27.2292 33.1721 27.2269H31.9942C31.838 27.2269 31.6882 27.2889 31.5778 27.3994C31.4673 27.5098 31.4053 27.6596 31.4053 27.8158V36.6316" stroke="#2DBCB4" stroke-width="2" stroke-linecap="round" stroke-linejoin="round"/>
<path d="M41.9328 46.0362C43.3291 46.038 44.6946 45.6256 45.8565 44.8512C47.0184 44.0767 47.9244 42.975 48.46 41.6855C48.9956 40.3959 49.1367 38.9765 48.8654 37.6068C48.5941 36.2371 47.9226 34.9786 46.9358 33.9906C45.9491 33.0026 44.6915 32.3295 43.3222 32.0564C41.9528 31.7833 40.5332 31.9226 39.243 32.4565C37.9527 32.9905 36.8499 33.8951 36.0739 35.056C35.298 36.2169 34.8838 37.5819 34.8838 38.9782C34.8826 39.9046 35.0641 40.8222 35.4178 41.6785C35.7715 42.5348 36.2905 43.3129 36.9452 43.9684C37.5999 44.624 38.3773 45.144 39.2332 45.4988C40.089 45.8536 41.0063 46.0362 41.9328 46.0362Z" stroke="#2DBCB4" stroke-width="2" stroke-linecap="round" stroke-linejoin="round"/>
<path d="M45.0764 36.9396L41.6697 41.4698C41.593 41.5703 41.4962 41.6537 41.3854 41.7145C41.2746 41.7754 41.1523 41.8124 41.0264 41.8231C40.9002 41.8312 40.7738 41.8128 40.6553 41.7691C40.5367 41.7254 40.4285 41.6574 40.3378 41.5694L38.5801 39.7574" stroke="#2DBCB4" stroke-width="2" stroke-linecap="round" stroke-linejoin="round"/>
</svg>
