<svg width="65" height="65" viewBox="0 0 65 65" fill="none" xmlns="http://www.w3.org/2000/svg">
<circle opacity="0.1" cx="32.5" cy="32.5" r="32.5" fill="#FC9E2A"/>
<path d="M33.1138 45.5696H23.114C22.8185 45.5696 22.5352 45.4522 22.3263 45.2433C22.1174 45.0344 22 44.751 22 44.4556V21.114C22 20.8185 22.1174 20.5352 22.3263 20.3263C22.5352 20.1174 22.8185 20 23.114 20H37.8867C38.0331 19.9998 38.178 20.0285 38.3133 20.0844C38.4486 20.1402 38.5715 20.2222 38.675 20.3256L42.7967 24.4473C42.9001 24.5508 42.9821 24.6738 43.0379 24.809C43.0938 24.9443 43.1225 25.0892 43.1223 25.2356V30.0085" stroke="#FC9E2A" stroke-width="2" stroke-linecap="round" stroke-linejoin="round"/>
<path d="M25.4277 26.8551H37.4242" stroke="#FC9E2A" stroke-width="2" stroke-linecap="round" stroke-linejoin="round"/>
<path d="M25.4277 31.9964H33.1397" stroke="#FC9E2A" stroke-width="2" stroke-linecap="round" stroke-linejoin="round"/>
<path d="M25.4277 37.1378H33.1397" stroke="#FC9E2A" stroke-width="2" stroke-linecap="round" stroke-linejoin="round"/>
<path d="M42.4156 42.3224C42.4963 42.3224 42.5738 42.3545 42.6309 42.4116C42.688 42.4687 42.7201 42.5462 42.7201 42.627C42.7201 42.6665 42.7122 42.7057 42.6967 42.7422C42.6813 42.7786 42.6587 42.8116 42.6303 42.8391C42.6019 42.8667 42.5683 42.8882 42.5314 42.9025C42.4945 42.9168 42.4551 42.9235 42.4156 42.9223C42.3373 42.9223 42.2622 42.8912 42.2068 42.8358C42.1514 42.7804 42.1203 42.7053 42.1203 42.627C42.119 42.5874 42.1257 42.548 42.14 42.5111C42.1543 42.4742 42.1759 42.4406 42.2034 42.4121C42.2309 42.3837 42.2639 42.3612 42.3004 42.3458C42.3368 42.3304 42.376 42.3224 42.4156 42.3224Z" fill="#FC9E2A" stroke="#FC9E2A" stroke-linecap="round" stroke-linejoin="round"/>
<path d="M42.3945 40.1031V36.7698" stroke="#FC9E2A" stroke-width="2" stroke-linecap="round" stroke-linejoin="round"/>
<path d="M43.3297 33.4109C43.2398 33.2424 43.1058 33.1016 42.9421 33.0034C42.7783 32.9052 42.591 32.8533 42.4 32.8533C42.2091 32.8533 42.0218 32.9052 41.858 33.0034C41.6943 33.1016 41.5602 33.2424 41.4703 33.4109L35.8491 44.122C35.7587 44.2751 35.7109 44.4497 35.7109 44.6275C35.7109 44.8054 35.7587 44.98 35.8491 45.1331C35.9381 45.2824 36.0632 45.407 36.213 45.4954C36.3627 45.5837 36.5322 45.633 36.706 45.6386H48.0084C48.1818 45.6314 48.3507 45.5816 48.5002 45.4934C48.6497 45.4052 48.7751 45.2814 48.8653 45.1331C48.954 44.9794 49.0007 44.805 49.0007 44.6275C49.0007 44.45 48.954 44.2757 48.8653 44.122L43.3297 33.4109Z" stroke="#FC9E2A" stroke-width="2" stroke-linecap="round" stroke-linejoin="round"/>
</svg>
