<svg width="65" height="65" viewBox="0 0 65 65" fill="none" xmlns="http://www.w3.org/2000/svg">
<circle opacity="0.15" cx="32.5" cy="32.5" r="32.5" fill="#7C4DF6"/>
<path d="M32.926 45.9729H21.1751C20.8635 45.9729 20.5646 45.8491 20.3442 45.6287C20.1238 45.4084 20 45.1095 20 44.7978V20.1751C20 20.0208 20.0304 19.868 20.0895 19.7254C20.1485 19.5828 20.2351 19.4533 20.3442 19.3442C20.4533 19.2351 20.5828 19.1485 20.7254 19.0895C20.868 19.0304 21.0208 19 21.1751 19H36.7586C37.0676 19.0091 37.3615 19.1351 37.5812 19.3525L41.929 23.6913C42.0385 23.8003 42.1253 23.9299 42.1842 24.0727C42.2432 24.2154 42.2732 24.3685 42.2725 24.5229V29.5578" stroke="#7C4DF6" stroke-width="2" stroke-linecap="round" stroke-linejoin="round"/>
<path d="M27.069 26.6291L23.5527 30.1453L27.069 33.6616" stroke="#7C4DF6" stroke-width="2" stroke-linecap="round" stroke-linejoin="round"/>
<path d="M30.5859 26.6291L34.1022 30.1453L30.5859 33.6616" stroke="#7C4DF6" stroke-width="2" stroke-linecap="round" stroke-linejoin="round"/>
<path d="M39.4166 43.695C40.4682 43.695 41.4962 43.3831 42.3704 42.7986C43.2447 42.2142 43.9259 41.3836 44.3279 40.4118C44.7299 39.4401 44.8346 38.371 44.6288 37.3397C44.423 36.3085 43.9159 35.3614 43.1717 34.6185C42.4275 33.8755 41.4796 33.37 40.448 33.166C39.4164 32.9619 38.3474 33.0684 37.3764 33.4721C36.4053 33.8758 35.5758 34.5584 34.9929 35.4337C34.41 36.3089 34.0998 37.3374 34.1016 38.389C34.1016 39.0866 34.2391 39.7773 34.5063 40.4216C34.7735 41.066 35.1652 41.6513 35.6588 42.1441C36.1525 42.637 36.7385 43.0276 37.3833 43.2937C38.0281 43.5598 38.7191 43.6962 39.4166 43.695V43.695Z" stroke="#7C4DF6" stroke-width="2" stroke-linecap="round" stroke-linejoin="round"/>
<path d="M47.0008 45.982L43.1953 42.1765" stroke="#7C4DF6" stroke-width="2" stroke-linecap="round" stroke-linejoin="round"/>
</svg>
