<svg width="59" height="59" viewBox="0 0 59 59" fill="none" xmlns="http://www.w3.org/2000/svg">
<circle opacity="0.1" cx="29.3616" cy="29.3616" r="29.3616" fill="#1770F9"/>
<path d="M29 41C31.3733 41 33.6934 40.2962 35.6668 38.9776C37.6402 37.659 39.1783 35.7849 40.0865 33.5922C40.9948 31.3995 41.2324 28.9867 40.7694 26.6589C40.3064 24.3311 39.1635 22.1929 37.4853 20.5147C35.807 18.8365 33.6688 17.6936 31.3411 17.2306C29.0133 16.7676 26.6005 17.0052 24.4078 17.9134C22.2151 18.8217 20.3409 20.3598 19.0224 22.3332C17.7038 24.3065 17 26.6266 17 29C17 32.1826 18.2643 35.2348 20.5147 37.4853C22.7652 39.7357 25.8174 41 29 41V41Z" stroke="#1770F9" stroke-width="2" stroke-linecap="round" stroke-linejoin="round"/>
<path d="M28.9999 23.2574V29L35.2653 34.7346" stroke="#1770F9" stroke-width="2" stroke-linecap="round" stroke-linejoin="round"/>
</svg>
